<?xml version="1.0" encoding="UTF-8" standalone="no"?>
<!DOCTYPE svg PUBLIC "-//W3C//DTD SVG 1.1//EN"
 "http://www.w3.org/Graphics/SVG/1.1/DTD/svg11.dtd">
<!-- Generated by graphviz version 2.43.0 (0)
 -->
<!-- Title: finite_state_machine Pages: 1 -->
<svg width="476pt" height="390pt"
 viewBox="0.00 0.00 476.00 390.00" xmlns="http://www.w3.org/2000/svg" xmlns:xlink="http://www.w3.org/1999/xlink">
<g id="graph0" class="graph" transform="scale(1 1) rotate(0) translate(4 386)">
<title>finite_state_machine</title>
<polygon fill="white" stroke="transparent" points="-4,4 -4,-386 472,-386 472,4 -4,4"/>
<!-- 5 -->
<g id="node1" class="node">
<title>5</title>
<ellipse fill="none" stroke="black" cx="18" cy="-70" rx="18" ry="18"/>
<text text-anchor="middle" x="18" y="-66.3" font-family="Helvetica,Arial,sans-serif" font-size="14.00">5</text>
</g>
<!-- 4 -->
<g id="node2" class="node">
<title>4</title>
<ellipse fill="none" stroke="black" cx="98" cy="-143" rx="18" ry="18"/>
<text text-anchor="middle" x="98" y="-139.3" font-family="Helvetica,Arial,sans-serif" font-size="14.00">4</text>
</g>
<!-- 5&#45;&gt;4 -->
<g id="edge1" class="edge">
<title>5&#45;&gt;4</title>
<path fill="none" stroke="black" d="M27.6,-85.5C33.92,-95.89 43.25,-109.38 54,-119 59.39,-123.83 65.92,-128.08 72.25,-131.62"/>
<polygon fill="black" stroke="black" points="70.72,-134.77 81.21,-136.28 73.94,-128.56 70.72,-134.77"/>
<text text-anchor="middle" x="58" y="-127.8" font-family="Helvetica,Arial,sans-serif" font-size="14.00">0</text>
</g>
<!-- 3 -->
<g id="node3" class="node">
<title>3</title>
<ellipse fill="none" stroke="black" cx="450" cy="-189" rx="18" ry="18"/>
<text text-anchor="middle" x="450" y="-185.3" font-family="Helvetica,Arial,sans-serif" font-size="14.00">3</text>
</g>
<!-- 5&#45;&gt;3 -->
<g id="edge2" class="edge">
<title>5&#45;&gt;3</title>
<path fill="none" stroke="black" d="M33.24,-60.23C48.35,-50.81 73.29,-38 97,-38 97,-38 97,-38 363,-38 419.02,-38 439.02,-117.45 445.78,-161.09"/>
<polygon fill="black" stroke="black" points="442.33,-161.67 447.19,-171.09 449.26,-160.69 442.33,-161.67"/>
<text text-anchor="middle" x="230" y="-41.8" font-family="Helvetica,Arial,sans-serif" font-size="14.00">0</text>
</g>
<!-- 4&#45;&gt;5 -->
<g id="edge3" class="edge">
<title>4&#45;&gt;5</title>
<path fill="none" stroke="black" d="M86.87,-128.59C80.33,-119.81 71.31,-108.65 62,-100 56.13,-94.55 49.21,-89.3 42.67,-84.76"/>
<polygon fill="black" stroke="black" points="44.36,-81.68 34.1,-79.05 40.48,-87.51 44.36,-81.68"/>
<text text-anchor="middle" x="58" y="-103.8" font-family="Helvetica,Arial,sans-serif" font-size="14.00">4</text>
</g>
<!-- 4&#45;&gt;3 -->
<g id="edge4" class="edge">
<title>4&#45;&gt;3</title>
<path fill="none" stroke="black" d="M101.9,-160.95C110.98,-214.11 140.95,-367 185,-367 185,-367 185,-367 363,-367 428.71,-367 444.23,-267.45 447.89,-217.24"/>
<polygon fill="black" stroke="black" points="451.39,-217.24 448.51,-207.05 444.41,-216.81 451.39,-217.24"/>
<text text-anchor="middle" x="274" y="-370.8" font-family="Helvetica,Arial,sans-serif" font-size="14.00">7</text>
</g>
<!-- 2 -->
<g id="node4" class="node">
<title>2</title>
<ellipse fill="none" stroke="black" cx="186" cy="-192" rx="18" ry="18"/>
<text text-anchor="middle" x="186" y="-188.3" font-family="Helvetica,Arial,sans-serif" font-size="14.00">2</text>
</g>
<!-- 4&#45;&gt;2 -->
<g id="edge5" class="edge">
<title>4&#45;&gt;2</title>
<path fill="none" stroke="black" d="M113.98,-151.57C120.18,-155.11 127.43,-159.26 134,-163 142.84,-168.04 152.54,-173.56 161.09,-178.42"/>
<polygon fill="black" stroke="black" points="159.4,-181.48 169.82,-183.38 162.86,-175.4 159.4,-181.48"/>
<text text-anchor="middle" x="142" y="-174.8" font-family="Helvetica,Arial,sans-serif" font-size="14.00">0</text>
</g>
<!-- 3&#45;&gt;5 -->
<g id="edge7" class="edge">
<title>3&#45;&gt;5</title>
<path fill="none" stroke="black" d="M448.96,-170.88C447.8,-123.57 437.62,0 363,0 97,0 97,0 97,0 68.79,0 46.14,-25.68 32.66,-45.93"/>
<polygon fill="black" stroke="black" points="29.65,-44.14 27.29,-54.46 35.58,-47.86 29.65,-44.14"/>
<text text-anchor="middle" x="230" y="-3.8" font-family="Helvetica,Arial,sans-serif" font-size="14.00">20</text>
</g>
<!-- 3&#45;&gt;4 -->
<g id="edge6" class="edge">
<title>3&#45;&gt;4</title>
<path fill="none" stroke="black" d="M443.73,-171.66C433.46,-141.84 407.77,-84 363,-84 185,-84 185,-84 185,-84 157.77,-84 132.85,-104.36 116.93,-121.16"/>
<polygon fill="black" stroke="black" points="113.95,-119.24 109.86,-129.02 119.15,-123.92 113.95,-119.24"/>
<text text-anchor="middle" x="274" y="-87.8" font-family="Helvetica,Arial,sans-serif" font-size="14.00">0</text>
</g>
<!-- 3&#45;&gt;2 -->
<g id="edge8" class="edge">
<title>3&#45;&gt;2</title>
<path fill="none" stroke="black" d="M434.43,-198.04C428.3,-201.54 420.98,-205.34 414,-208 347.5,-233.35 326.44,-244.14 256,-234 240.41,-231.75 235.72,-231.74 222,-224 216.39,-220.84 210.95,-216.63 206.09,-212.3"/>
<polygon fill="black" stroke="black" points="208.18,-209.46 198.54,-205.07 203.34,-214.51 208.18,-209.46"/>
<text text-anchor="middle" x="318" y="-240.8" font-family="Helvetica,Arial,sans-serif" font-size="14.00">9</text>
</g>
<!-- 1 -->
<g id="node5" class="node">
<title>1</title>
<ellipse fill="none" stroke="black" cx="362" cy="-189" rx="18" ry="18"/>
<text text-anchor="middle" x="362" y="-185.3" font-family="Helvetica,Arial,sans-serif" font-size="14.00">1</text>
</g>
<!-- 3&#45;&gt;1 -->
<g id="edge9" class="edge">
<title>3&#45;&gt;1</title>
<path fill="none" stroke="black" d="M434.28,-179.46C428.25,-176.08 421.04,-172.7 414,-171 407.09,-169.33 404.91,-169.33 398,-171 394.26,-171.91 390.47,-173.28 386.84,-174.88"/>
<polygon fill="black" stroke="black" points="385.09,-171.85 377.72,-179.46 388.22,-178.1 385.09,-171.85"/>
<text text-anchor="middle" x="406" y="-174.8" font-family="Helvetica,Arial,sans-serif" font-size="14.00">0</text>
</g>
<!-- 2&#45;&gt;4 -->
<g id="edge11" class="edge">
<title>2&#45;&gt;4</title>
<path fill="none" stroke="black" d="M177.84,-175.47C172.07,-164.4 162.81,-150.67 150,-144 142.79,-140.25 134.2,-139.05 126.14,-139.07"/>
<polygon fill="black" stroke="black" points="125.78,-135.59 116.01,-139.68 126.2,-142.57 125.78,-135.59"/>
<text text-anchor="middle" x="142" y="-147.8" font-family="Helvetica,Arial,sans-serif" font-size="14.00">14</text>
</g>
<!-- 2&#45;&gt;3 -->
<g id="edge10" class="edge">
<title>2&#45;&gt;3</title>
<path fill="none" stroke="black" d="M194.56,-208.04C200.52,-218.96 209.85,-232.85 222,-241 260.78,-267.01 279.78,-262.7 326,-256 367.04,-250.05 379.95,-248.67 414,-225 420.06,-220.79 425.94,-215.42 431.09,-210.13"/>
<polygon fill="black" stroke="black" points="433.86,-212.3 438.07,-202.57 428.71,-207.55 433.86,-212.3"/>
<text text-anchor="middle" x="318" y="-261.8" font-family="Helvetica,Arial,sans-serif" font-size="14.00">0</text>
</g>
<!-- 2&#45;&gt;1 -->
<g id="edge12" class="edge">
<title>2&#45;&gt;1</title>
<path fill="none" stroke="black" d="M202.32,-200.14C208.31,-203.02 215.34,-206.03 222,-208 251.91,-216.84 260.97,-216.16 292,-213 307.35,-211.44 311.39,-210.96 326,-206 329.6,-204.78 333.31,-203.27 336.91,-201.66"/>
<polygon fill="black" stroke="black" points="338.51,-204.77 346.02,-197.3 335.49,-198.46 338.51,-204.77"/>
<text text-anchor="middle" x="274" y="-218.8" font-family="Helvetica,Arial,sans-serif" font-size="14.00">4</text>
</g>
<!-- 0 -->
<g id="node6" class="node">
<title>0</title>
<ellipse fill="none" stroke="black" cx="274" cy="-186" rx="18" ry="18"/>
<text text-anchor="middle" x="274" y="-182.3" font-family="Helvetica,Arial,sans-serif" font-size="14.00">0</text>
</g>
<!-- 2&#45;&gt;0 -->
<g id="edge13" class="edge">
<title>2&#45;&gt;0</title>
<path fill="none" stroke="black" d="M203.99,-190.81C215.81,-189.99 231.83,-188.87 245.46,-187.92"/>
<polygon fill="black" stroke="black" points="246.02,-191.39 255.75,-187.2 245.53,-184.41 246.02,-191.39"/>
<text text-anchor="middle" x="230" y="-192.8" font-family="Helvetica,Arial,sans-serif" font-size="14.00">0</text>
</g>
<!-- 1&#45;&gt;3 -->
<g id="edge17" class="edge">
<title>1&#45;&gt;3</title>
<path fill="none" stroke="black" d="M380.4,-189C392.25,-189 408.18,-189 421.71,-189"/>
<polygon fill="black" stroke="black" points="421.92,-192.5 431.92,-189 421.92,-185.5 421.92,-192.5"/>
<text text-anchor="middle" x="406" y="-192.8" font-family="Helvetica,Arial,sans-serif" font-size="14.00">12</text>
</g>
<!-- 1&#45;&gt;2 -->
<g id="edge16" class="edge">
<title>1&#45;&gt;2</title>
<path fill="none" stroke="black" d="M347.76,-177.93C341.37,-172.81 333.49,-166.82 326,-162 298.99,-144.61 287.09,-135.9 256,-144 237.47,-148.83 219.8,-161.32 206.98,-172.35"/>
<polygon fill="black" stroke="black" points="204.37,-169.99 199.3,-179.3 209.07,-175.19 204.37,-169.99"/>
<text text-anchor="middle" x="274" y="-147.8" font-family="Helvetica,Arial,sans-serif" font-size="14.00">0</text>
</g>
<!-- 1&#45;&gt;0 -->
<g id="edge18" class="edge">
<title>1&#45;&gt;0</title>
<path fill="none" stroke="black" d="M347.16,-178.33C341.03,-174.25 333.51,-170.08 326,-168 316.8,-165.45 306.85,-167.77 298.21,-171.49"/>
<polygon fill="black" stroke="black" points="296.46,-168.46 289.12,-176.1 299.62,-174.7 296.46,-168.46"/>
<text text-anchor="middle" x="318" y="-171.8" font-family="Helvetica,Arial,sans-serif" font-size="14.00">0</text>
</g>
<!-- 0&#45;&gt;2 -->
<g id="edge14" class="edge">
<title>0&#45;&gt;2</title>
<path fill="none" stroke="black" d="M258.35,-176.14C248.2,-170.54 234.34,-165.31 222,-169 217.49,-170.35 213.02,-172.49 208.86,-174.93"/>
<polygon fill="black" stroke="black" points="206.76,-172.13 200.36,-180.57 210.63,-177.96 206.76,-172.13"/>
<text text-anchor="middle" x="230" y="-172.8" font-family="Helvetica,Arial,sans-serif" font-size="14.00">13</text>
</g>
<!-- 0&#45;&gt;1 -->
<g id="edge15" class="edge">
<title>0&#45;&gt;1</title>
<path fill="none" stroke="black" d="M291.99,-186.59C303.81,-187.01 319.83,-187.56 333.46,-188.04"/>
<polygon fill="black" stroke="black" points="333.63,-191.55 343.75,-188.4 333.88,-184.55 333.63,-191.55"/>
<text text-anchor="middle" x="318" y="-190.8" font-family="Helvetica,Arial,sans-serif" font-size="14.00">16</text>
</g>
</g>
</svg>
