<?xml version="1.0" encoding="UTF-8" standalone="no"?>
<!DOCTYPE svg PUBLIC "-//W3C//DTD SVG 1.1//EN"
 "http://www.w3.org/Graphics/SVG/1.1/DTD/svg11.dtd">
<!-- Generated by graphviz version 2.43.0 (0)
 -->
<!-- Title: finite_state_machine Pages: 1 -->
<svg width="395pt" height="249pt"
 viewBox="0.00 0.00 395.00 249.00" xmlns="http://www.w3.org/2000/svg" xmlns:xlink="http://www.w3.org/1999/xlink">
<g id="graph0" class="graph" transform="scale(1 1) rotate(0) translate(4 245)">
<title>finite_state_machine</title>
<polygon fill="white" stroke="transparent" points="-4,4 -4,-245 391,-245 391,4 -4,4"/>
<!-- 4 -->
<g id="node1" class="node">
<title>4</title>
<ellipse fill="none" stroke="black" cx="18" cy="-140" rx="18" ry="18"/>
<text text-anchor="middle" x="18" y="-136.3" font-family="Helvetica,Arial,sans-serif" font-size="14.00">4</text>
</g>
<!-- 5 -->
<g id="node2" class="node">
<title>5</title>
<ellipse fill="none" stroke="black" cx="369" cy="-180" rx="18" ry="18"/>
<text text-anchor="middle" x="369" y="-176.3" font-family="Helvetica,Arial,sans-serif" font-size="14.00">5</text>
</g>
<!-- 4&#45;&gt;5 -->
<g id="edge1" class="edge">
<title>4&#45;&gt;5</title>
<path fill="none" stroke="black" d="M25.24,-156.58C35.84,-181.57 59.91,-226 97,-226 97,-226 97,-226 275,-226 301.78,-226 328.82,-210.49 346.79,-197.48"/>
<polygon fill="black" stroke="black" points="348.99,-200.2 354.84,-191.37 344.76,-194.63 348.99,-200.2"/>
<text text-anchor="middle" x="186" y="-229.8" font-family="Helvetica,Arial,sans-serif" font-size="14.00">4</text>
</g>
<!-- 3 -->
<g id="node3" class="node">
<title>3</title>
<ellipse fill="none" stroke="black" cx="98" cy="-140" rx="18" ry="18"/>
<text text-anchor="middle" x="98" y="-136.3" font-family="Helvetica,Arial,sans-serif" font-size="14.00">3</text>
</g>
<!-- 4&#45;&gt;3 -->
<g id="edge2" class="edge">
<title>4&#45;&gt;3</title>
<path fill="none" stroke="black" d="M36.31,-140C46.11,-140 58.58,-140 69.67,-140"/>
<polygon fill="black" stroke="black" points="69.74,-143.5 79.74,-140 69.74,-136.5 69.74,-143.5"/>
<text text-anchor="middle" x="58" y="-143.8" font-family="Helvetica,Arial,sans-serif" font-size="14.00">7</text>
</g>
<!-- 3&#45;&gt;5 -->
<g id="edge3" class="edge">
<title>3&#45;&gt;5</title>
<path fill="none" stroke="black" d="M116.08,-143.02C121.77,-144 128.15,-145.07 134,-146 208.76,-157.84 297.21,-170.26 340.85,-176.28"/>
<polygon fill="black" stroke="black" points="340.56,-179.78 350.95,-177.67 341.52,-172.84 340.56,-179.78"/>
<text text-anchor="middle" x="230" y="-164.8" font-family="Helvetica,Arial,sans-serif" font-size="14.00">20</text>
</g>
<!-- 2 -->
<g id="node4" class="node">
<title>2</title>
<ellipse fill="none" stroke="black" cx="186" cy="-81" rx="18" ry="18"/>
<text text-anchor="middle" x="186" y="-77.3" font-family="Helvetica,Arial,sans-serif" font-size="14.00">2</text>
</g>
<!-- 3&#45;&gt;2 -->
<g id="edge4" class="edge">
<title>3&#45;&gt;2</title>
<path fill="none" stroke="black" d="M111.9,-128.47C118.35,-122.93 126.38,-116.35 134,-111 142.52,-105.02 152.29,-99.07 160.98,-94.07"/>
<polygon fill="black" stroke="black" points="162.89,-97.02 169.88,-89.06 159.45,-90.92 162.89,-97.02"/>
<text text-anchor="middle" x="142" y="-114.8" font-family="Helvetica,Arial,sans-serif" font-size="14.00">9</text>
</g>
<!-- 2&#45;&gt;4 -->
<g id="edge5" class="edge">
<title>2&#45;&gt;4</title>
<path fill="none" stroke="black" d="M167.65,-81.49C146.31,-82.6 109.3,-86.24 80,-98 65.55,-103.8 51.12,-113.52 39.92,-122.14"/>
<polygon fill="black" stroke="black" points="37.67,-119.46 32.04,-128.44 42.04,-124.93 37.67,-119.46"/>
<text text-anchor="middle" x="98" y="-101.8" font-family="Helvetica,Arial,sans-serif" font-size="14.00">14</text>
</g>
<!-- 1 -->
<g id="node5" class="node">
<title>1</title>
<ellipse fill="none" stroke="black" cx="274" cy="-109" rx="18" ry="18"/>
<text text-anchor="middle" x="274" y="-105.3" font-family="Helvetica,Arial,sans-serif" font-size="14.00">1</text>
</g>
<!-- 2&#45;&gt;1 -->
<g id="edge6" class="edge">
<title>2&#45;&gt;1</title>
<path fill="none" stroke="black" d="M203.58,-86.4C215.91,-90.41 232.98,-95.97 247.11,-100.57"/>
<polygon fill="black" stroke="black" points="246.17,-103.94 256.76,-103.71 248.34,-97.29 246.17,-103.94"/>
<text text-anchor="middle" x="230" y="-100.8" font-family="Helvetica,Arial,sans-serif" font-size="14.00">4</text>
</g>
<!-- 1&#45;&gt;5 -->
<g id="edge10" class="edge">
<title>1&#45;&gt;5</title>
<path fill="none" stroke="black" d="M289.49,-119.1C301.34,-127.45 318.46,-139.73 333,-151 337.6,-154.57 342.45,-158.48 347.03,-162.25"/>
<polygon fill="black" stroke="black" points="344.94,-165.07 354.87,-168.78 349.42,-159.69 344.94,-165.07"/>
<text text-anchor="middle" x="321.5" y="-154.8" font-family="Helvetica,Arial,sans-serif" font-size="14.00">999</text>
</g>
<!-- 1&#45;&gt;3 -->
<g id="edge9" class="edge">
<title>1&#45;&gt;3</title>
<path fill="none" stroke="black" d="M256.28,-112.44C250.5,-113.6 243.97,-114.89 238,-116 199.32,-123.21 154.44,-130.82 126.38,-135.49"/>
<polygon fill="black" stroke="black" points="125.44,-132.1 116.15,-137.19 126.58,-139.01 125.44,-132.1"/>
<text text-anchor="middle" x="186" y="-131.8" font-family="Helvetica,Arial,sans-serif" font-size="14.00">12</text>
</g>
<!-- 0 -->
<g id="node6" class="node">
<title>0</title>
<ellipse fill="none" stroke="black" cx="98" cy="-18" rx="18" ry="18"/>
<text text-anchor="middle" x="98" y="-14.3" font-family="Helvetica,Arial,sans-serif" font-size="14.00">0</text>
</g>
<!-- 0&#45;&gt;2 -->
<g id="edge7" class="edge">
<title>0&#45;&gt;2</title>
<path fill="none" stroke="black" d="M114.29,-25.82C124.73,-31.44 138.66,-39.49 150,-48 155.35,-52.01 160.77,-56.74 165.71,-61.35"/>
<polygon fill="black" stroke="black" points="163.34,-63.94 172.97,-68.37 168.21,-58.9 163.34,-63.94"/>
<text text-anchor="middle" x="142" y="-51.8" font-family="Helvetica,Arial,sans-serif" font-size="14.00">13</text>
</g>
<!-- 0&#45;&gt;1 -->
<g id="edge8" class="edge">
<title>0&#45;&gt;1</title>
<path fill="none" stroke="black" d="M116.03,-18.37C137.7,-19.5 175.7,-23.72 204,-39 225.16,-50.42 243.93,-70.48 256.53,-86.2"/>
<polygon fill="black" stroke="black" points="253.99,-88.64 262.87,-94.41 259.53,-84.36 253.99,-88.64"/>
<text text-anchor="middle" x="186" y="-42.8" font-family="Helvetica,Arial,sans-serif" font-size="14.00">16</text>
</g>
</g>
</svg>
