<?xml version="1.0" encoding="UTF-8" standalone="no"?>
<!DOCTYPE svg PUBLIC "-//W3C//DTD SVG 1.1//EN"
 "http://www.w3.org/Graphics/SVG/1.1/DTD/svg11.dtd">
<!-- Generated by graphviz version 2.43.0 (0)
 -->
<!-- Title: finite_state_machine Pages: 1 -->
<svg width="380pt" height="403pt"
 viewBox="0.00 0.00 380.00 403.00" xmlns="http://www.w3.org/2000/svg" xmlns:xlink="http://www.w3.org/1999/xlink">
<g id="graph0" class="graph" transform="scale(1 1) rotate(0) translate(4 399)">
<title>finite_state_machine</title>
<polygon fill="white" stroke="transparent" points="-4,4 -4,-399 376,-399 376,4 -4,4"/>
<!-- 5 -->
<g id="node1" class="node">
<title>5</title>
<ellipse fill="none" stroke="black" cx="18" cy="-70" rx="18" ry="18"/>
<text text-anchor="middle" x="18" y="-66.3" font-family="Helvetica,Arial,sans-serif" font-size="14.00">5</text>
</g>
<!-- 4 -->
<g id="node2" class="node">
<title>4</title>
<ellipse fill="none" stroke="black" cx="98" cy="-130" rx="18" ry="18"/>
<text text-anchor="middle" x="98" y="-126.3" font-family="Helvetica,Arial,sans-serif" font-size="14.00">4</text>
</g>
<!-- 5&#45;&gt;4 -->
<g id="edge1" class="edge">
<title>5&#45;&gt;4</title>
<path fill="none" stroke="black" d="M30.48,-83.6C36.94,-90.77 45.42,-99.42 54,-106 59.52,-110.23 65.88,-114.2 71.98,-117.64"/>
<polygon fill="black" stroke="black" points="70.73,-120.95 81.2,-122.58 74.04,-114.78 70.73,-120.95"/>
<text text-anchor="middle" x="58" y="-114.8" font-family="Helvetica,Arial,sans-serif" font-size="14.00">0</text>
</g>
<!-- 3 -->
<g id="node3" class="node">
<title>3</title>
<ellipse fill="none" stroke="black" cx="354" cy="-155" rx="18" ry="18"/>
<text text-anchor="middle" x="354" y="-151.3" font-family="Helvetica,Arial,sans-serif" font-size="14.00">3</text>
</g>
<!-- 5&#45;&gt;3 -->
<g id="edge2" class="edge">
<title>5&#45;&gt;3</title>
<path fill="none" stroke="black" d="M35.16,-63.67C50.74,-58.15 75.12,-51 97,-51 97,-51 97,-51 267,-51 306.99,-51 331.89,-97.24 344.04,-128.06"/>
<polygon fill="black" stroke="black" points="340.91,-129.67 347.68,-137.83 347.47,-127.23 340.91,-129.67"/>
<text text-anchor="middle" x="186" y="-54.8" font-family="Helvetica,Arial,sans-serif" font-size="14.00">0</text>
</g>
<!-- 4&#45;&gt;5 -->
<g id="edge5" class="edge">
<title>4&#45;&gt;5</title>
<path fill="none" stroke="black" d="M87.54,-114.79C81.24,-105.7 72.25,-94.51 62,-87 56.94,-83.29 50.96,-80.27 45.09,-77.85"/>
<polygon fill="black" stroke="black" points="46.11,-74.49 35.52,-74.34 43.7,-81.07 46.11,-74.49"/>
<text text-anchor="middle" x="58" y="-90.8" font-family="Helvetica,Arial,sans-serif" font-size="14.00">4</text>
</g>
<!-- 4&#45;&gt;3 -->
<g id="edge7" class="edge">
<title>4&#45;&gt;3</title>
<path fill="none" stroke="black" d="M116.06,-131.68C159.26,-135.93 273.25,-147.15 325.79,-152.32"/>
<polygon fill="black" stroke="black" points="325.72,-155.83 336.01,-153.33 326.41,-148.87 325.72,-155.83"/>
<text text-anchor="middle" x="226" y="-145.8" font-family="Helvetica,Arial,sans-serif" font-size="14.00">3</text>
</g>
<!-- 2 -->
<g id="node5" class="node">
<title>2</title>
<ellipse fill="none" stroke="black" cx="186" cy="-245" rx="18" ry="18"/>
<text text-anchor="middle" x="186" y="-241.3" font-family="Helvetica,Arial,sans-serif" font-size="14.00">2</text>
</g>
<!-- 4&#45;&gt;2 -->
<g id="edge6" class="edge">
<title>4&#45;&gt;2</title>
<path fill="none" stroke="black" d="M104.36,-147.05C109.99,-163.13 119.97,-187.33 134,-205 141.72,-214.72 152.24,-223.48 161.73,-230.31"/>
<polygon fill="black" stroke="black" points="159.82,-233.24 170.04,-236.02 163.78,-227.47 159.82,-233.24"/>
<text text-anchor="middle" x="142" y="-223.8" font-family="Helvetica,Arial,sans-serif" font-size="14.00">0</text>
</g>
<!-- 3&#45;&gt;5 -->
<g id="edge8" class="edge">
<title>3&#45;&gt;5</title>
<path fill="none" stroke="black" d="M351.4,-136.92C346.68,-96.03 329.01,0 267,0 97,0 97,0 97,0 68.79,0 46.14,-25.68 32.66,-45.93"/>
<polygon fill="black" stroke="black" points="29.65,-44.14 27.29,-54.46 35.58,-47.86 29.65,-44.14"/>
<text text-anchor="middle" x="186" y="-3.8" font-family="Helvetica,Arial,sans-serif" font-size="14.00">20</text>
</g>
<!-- 3&#45;&gt;4 -->
<g id="edge10" class="edge">
<title>3&#45;&gt;4</title>
<path fill="none" stroke="black" d="M336.55,-149.29C313.21,-141.51 268.96,-127.98 230,-123 194.26,-118.43 152.66,-122.18 126.1,-125.71"/>
<polygon fill="black" stroke="black" points="125.44,-122.27 116.03,-127.14 126.42,-129.2 125.44,-122.27"/>
<text text-anchor="middle" x="226" y="-126.8" font-family="Helvetica,Arial,sans-serif" font-size="14.00">4</text>
</g>
<!-- 3&#45;&gt;2 -->
<g id="edge11" class="edge">
<title>3&#45;&gt;2</title>
<path fill="none" stroke="black" d="M341.65,-168.15C335.23,-175.02 326.74,-183.18 318,-189 284.59,-211.24 240.9,-227.79 213.39,-236.92"/>
<polygon fill="black" stroke="black" points="212.13,-233.65 203.69,-240.06 214.28,-240.31 212.13,-233.65"/>
<text text-anchor="middle" x="266" y="-226.8" font-family="Helvetica,Arial,sans-serif" font-size="14.00">5</text>
</g>
<!-- 1 -->
<g id="node6" class="node">
<title>1</title>
<ellipse fill="none" stroke="black" cx="266" cy="-290" rx="18" ry="18"/>
<text text-anchor="middle" x="266" y="-286.3" font-family="Helvetica,Arial,sans-serif" font-size="14.00">1</text>
</g>
<!-- 3&#45;&gt;1 -->
<g id="edge9" class="edge">
<title>3&#45;&gt;1</title>
<path fill="none" stroke="black" d="M344.38,-170.22C337.47,-182.24 327.41,-199.38 318,-214 311.26,-224.47 308.99,-226.69 302,-237 295.44,-246.68 288.3,-257.44 282.2,-266.72"/>
<polygon fill="black" stroke="black" points="279.27,-264.81 276.71,-275.09 285.12,-268.64 279.27,-264.81"/>
<text text-anchor="middle" x="310" y="-240.8" font-family="Helvetica,Arial,sans-serif" font-size="14.00">0</text>
</g>
<!-- 0 -->
<g id="node4" class="node">
<title>0</title>
<ellipse fill="none" stroke="black" cx="354" cy="-365" rx="18" ry="18"/>
<text text-anchor="middle" x="354" y="-361.3" font-family="Helvetica,Arial,sans-serif" font-size="14.00">0</text>
</g>
<!-- 0&#45;&gt;2 -->
<g id="edge3" class="edge">
<title>0&#45;&gt;2</title>
<path fill="none" stroke="black" d="M335.93,-365.17C325.76,-364.74 312.78,-363.26 302,-359 260.91,-342.77 252.15,-332.29 222,-300 213.6,-291.01 206.03,-279.73 200.09,-269.74"/>
<polygon fill="black" stroke="black" points="203.11,-267.97 195.12,-261.02 197.03,-271.44 203.11,-267.97"/>
<text text-anchor="middle" x="266" y="-354.8" font-family="Helvetica,Arial,sans-serif" font-size="14.00">13</text>
</g>
<!-- 0&#45;&gt;1 -->
<g id="edge4" class="edge">
<title>0&#45;&gt;1</title>
<path fill="none" stroke="black" d="M345.38,-349.18C339.29,-337.88 329.81,-322.97 318,-313 310.74,-306.88 301.59,-302.08 293.05,-298.48"/>
<polygon fill="black" stroke="black" points="294.05,-295.11 283.46,-294.81 291.55,-301.65 294.05,-295.11"/>
<text text-anchor="middle" x="310" y="-316.8" font-family="Helvetica,Arial,sans-serif" font-size="14.00">16</text>
</g>
<!-- 2&#45;&gt;4 -->
<g id="edge15" class="edge">
<title>2&#45;&gt;4</title>
<path fill="none" stroke="black" d="M176.9,-229.42C170.27,-217.2 160.34,-199.98 150,-186 140.53,-173.2 128.6,-159.97 118.66,-149.59"/>
<polygon fill="black" stroke="black" points="121.01,-146.98 111.53,-142.26 115.99,-151.87 121.01,-146.98"/>
<text text-anchor="middle" x="142" y="-189.8" font-family="Helvetica,Arial,sans-serif" font-size="14.00">14</text>
</g>
<!-- 2&#45;&gt;3 -->
<g id="edge17" class="edge">
<title>2&#45;&gt;3</title>
<path fill="none" stroke="black" d="M198.85,-231.51C210.33,-219.18 228.78,-201.2 248,-190 272.68,-175.61 304.11,-166.13 326.12,-160.71"/>
<polygon fill="black" stroke="black" points="327.16,-164.06 336.1,-158.37 325.57,-157.25 327.16,-164.06"/>
<text text-anchor="middle" x="266" y="-193.8" font-family="Helvetica,Arial,sans-serif" font-size="14.00">4</text>
</g>
<!-- 2&#45;&gt;0 -->
<g id="edge16" class="edge">
<title>2&#45;&gt;0</title>
<path fill="none" stroke="black" d="M189.96,-262.69C195.69,-290.73 211.12,-344.79 248,-370 271.12,-385.81 304.27,-380.86 327.1,-374.37"/>
<polygon fill="black" stroke="black" points="328.29,-377.66 336.79,-371.34 326.2,-370.98 328.29,-377.66"/>
<text text-anchor="middle" x="266" y="-383.8" font-family="Helvetica,Arial,sans-serif" font-size="14.00">0</text>
</g>
<!-- 2&#45;&gt;1 -->
<g id="edge18" class="edge">
<title>2&#45;&gt;1</title>
<path fill="none" stroke="black" d="M198.44,-258.54C204.76,-265.26 213.13,-272.99 222,-278 226.98,-280.81 232.66,-283 238.22,-284.69"/>
<polygon fill="black" stroke="black" points="237.37,-288.08 247.93,-287.22 239.13,-281.31 237.37,-288.08"/>
<text text-anchor="middle" x="226" y="-284.8" font-family="Helvetica,Arial,sans-serif" font-size="14.00">0</text>
</g>
<!-- 1&#45;&gt;3 -->
<g id="edge12" class="edge">
<title>1&#45;&gt;3</title>
<path fill="none" stroke="black" d="M282.3,-281.88C293.57,-275.2 308.53,-264.77 318,-252 333.35,-231.31 342.51,-203.23 347.58,-182.6"/>
<polygon fill="black" stroke="black" points="351.05,-183.1 349.87,-172.58 344.23,-181.54 351.05,-183.1"/>
<text text-anchor="middle" x="310" y="-271.8" font-family="Helvetica,Arial,sans-serif" font-size="14.00">12</text>
</g>
<!-- 1&#45;&gt;0 -->
<g id="edge13" class="edge">
<title>1&#45;&gt;0</title>
<path fill="none" stroke="black" d="M278.38,-303.63C284.95,-311.17 293.56,-320.49 302,-328 310.79,-335.82 321.21,-343.61 330.32,-350"/>
<polygon fill="black" stroke="black" points="328.35,-352.89 338.57,-355.67 332.31,-347.12 328.35,-352.89"/>
<text text-anchor="middle" x="310" y="-343.8" font-family="Helvetica,Arial,sans-serif" font-size="14.00">0</text>
</g>
<!-- 1&#45;&gt;2 -->
<g id="edge14" class="edge">
<title>1&#45;&gt;2</title>
<path fill="none" stroke="black" d="M251.95,-278.62C245.6,-273.44 237.7,-267.48 230,-263 224.62,-259.87 218.6,-257 212.8,-254.51"/>
<polygon fill="black" stroke="black" points="213.99,-251.22 203.41,-250.71 211.36,-257.71 213.99,-251.22"/>
<text text-anchor="middle" x="226" y="-266.8" font-family="Helvetica,Arial,sans-serif" font-size="14.00">4</text>
</g>
</g>
</svg>
