<?xml version="1.0" encoding="UTF-8" standalone="no"?>
<!DOCTYPE svg PUBLIC "-//W3C//DTD SVG 1.1//EN"
 "http://www.w3.org/Graphics/SVG/1.1/DTD/svg11.dtd">
<!-- Generated by graphviz version 2.43.0 (0)
 -->
<!-- Title: finite_state_machine Pages: 1 -->
<svg width="560pt" height="160pt"
 viewBox="0.00 0.00 560.00 160.00" xmlns="http://www.w3.org/2000/svg" xmlns:xlink="http://www.w3.org/1999/xlink">
<g id="graph0" class="graph" transform="scale(1 1) rotate(0) translate(4 156)">
<title>finite_state_machine</title>
<polygon fill="white" stroke="transparent" points="-4,4 -4,-156 556,-156 556,4 -4,4"/>
<!-- 0 -->
<g id="node1" class="node">
<title>0</title>
<ellipse fill="none" stroke="black" cx="18" cy="-131" rx="18" ry="18"/>
<text text-anchor="middle" x="18" y="-127.3" font-family="Helvetica,Arial,sans-serif" font-size="14.00">0</text>
</g>
<!-- 1 -->
<g id="node2" class="node">
<title>1</title>
<ellipse fill="none" stroke="black" cx="124" cy="-108" rx="18" ry="18"/>
<text text-anchor="middle" x="124" y="-104.3" font-family="Helvetica,Arial,sans-serif" font-size="14.00">1</text>
</g>
<!-- 0&#45;&gt;1 -->
<g id="edge1" class="edge">
<title>0&#45;&gt;1</title>
<path fill="none" stroke="black" d="M35.71,-127.3C52.08,-123.68 77.3,-118.11 96.43,-113.88"/>
<polygon fill="black" stroke="black" points="97.32,-117.26 106.33,-111.69 95.81,-110.43 97.32,-117.26"/>
<text text-anchor="middle" x="71" y="-125.8" font-family="Helvetica,Arial,sans-serif" font-size="14.00">0 / 16</text>
</g>
<!-- 2 -->
<g id="node3" class="node">
<title>2</title>
<ellipse fill="none" stroke="black" cx="329" cy="-105" rx="18" ry="18"/>
<text text-anchor="middle" x="329" y="-101.3" font-family="Helvetica,Arial,sans-serif" font-size="14.00">2</text>
</g>
<!-- 0&#45;&gt;2 -->
<g id="edge2" class="edge">
<title>0&#45;&gt;2</title>
<path fill="none" stroke="black" d="M35.57,-136.17C41.34,-137.73 47.9,-139.23 54,-140 68.99,-141.9 72.9,-140.7 88,-140 179.49,-135.77 204.41,-142.24 293,-119 296.23,-118.15 299.56,-117.09 302.82,-115.93"/>
<polygon fill="black" stroke="black" points="304.2,-119.15 312.25,-112.26 301.66,-112.62 304.2,-119.15"/>
<text text-anchor="middle" x="177" y="-140.8" font-family="Helvetica,Arial,sans-serif" font-size="14.00">0 / 13</text>
</g>
<!-- 3 -->
<g id="node4" class="node">
<title>3</title>
<ellipse fill="none" stroke="black" cx="230" cy="-53" rx="18" ry="18"/>
<text text-anchor="middle" x="230" y="-49.3" font-family="Helvetica,Arial,sans-serif" font-size="14.00">3</text>
</g>
<!-- 1&#45;&gt;3 -->
<g id="edge3" class="edge">
<title>1&#45;&gt;3</title>
<path fill="none" stroke="black" d="M138.44,-96.82C144.74,-91.9 152.5,-86.28 160,-82 173.76,-74.15 190.07,-67.2 203.37,-62.07"/>
<polygon fill="black" stroke="black" points="204.72,-65.3 212.87,-58.52 202.27,-58.75 204.72,-65.3"/>
<text text-anchor="middle" x="177" y="-85.8" font-family="Helvetica,Arial,sans-serif" font-size="14.00">0 / 12</text>
</g>
<!-- 2&#45;&gt;1 -->
<g id="edge4" class="edge">
<title>2&#45;&gt;1</title>
<path fill="none" stroke="black" d="M310.74,-105.26C275.49,-105.78 195.01,-106.97 152.49,-107.59"/>
<polygon fill="black" stroke="black" points="152.25,-104.1 142.31,-107.74 152.36,-111.1 152.25,-104.1"/>
<text text-anchor="middle" x="230" y="-109.8" font-family="Helvetica,Arial,sans-serif" font-size="14.00">0 / 4</text>
</g>
<!-- 4 -->
<g id="node5" class="node">
<title>4</title>
<ellipse fill="none" stroke="black" cx="435" cy="-48" rx="18" ry="18"/>
<text text-anchor="middle" x="435" y="-44.3" font-family="Helvetica,Arial,sans-serif" font-size="14.00">4</text>
</g>
<!-- 2&#45;&gt;4 -->
<g id="edge5" class="edge">
<title>2&#45;&gt;4</title>
<path fill="none" stroke="black" d="M345.35,-96.59C362.42,-87.23 390.21,-72 410.13,-61.08"/>
<polygon fill="black" stroke="black" points="411.84,-64.14 418.93,-56.26 408.48,-58 411.84,-64.14"/>
<text text-anchor="middle" x="382" y="-87.8" font-family="Helvetica,Arial,sans-serif" font-size="14.00">0 / 14</text>
</g>
<!-- 3&#45;&gt;2 -->
<g id="edge6" class="edge">
<title>3&#45;&gt;2</title>
<path fill="none" stroke="black" d="M246.85,-59.66C259.57,-65.18 277.75,-73.48 293,-82 297.04,-84.26 301.23,-86.81 305.25,-89.37"/>
<polygon fill="black" stroke="black" points="303.37,-92.33 313.65,-94.9 307.21,-86.48 303.37,-92.33"/>
<text text-anchor="middle" x="279.5" y="-85.8" font-family="Helvetica,Arial,sans-serif" font-size="14.00">0 / 9</text>
</g>
<!-- 5 -->
<g id="node6" class="node">
<title>5</title>
<ellipse fill="none" stroke="black" cx="534" cy="-18" rx="18" ry="18"/>
<text text-anchor="middle" x="534" y="-14.3" font-family="Helvetica,Arial,sans-serif" font-size="14.00">5</text>
</g>
<!-- 3&#45;&gt;5 -->
<g id="edge7" class="edge">
<title>3&#45;&gt;5</title>
<path fill="none" stroke="black" d="M247.82,-49.27C280.31,-42.24 354.07,-27.19 417,-21 447.12,-18.04 481.83,-17.52 505.37,-17.59"/>
<polygon fill="black" stroke="black" points="505.63,-21.1 515.66,-17.67 505.68,-14.1 505.63,-21.1"/>
<text text-anchor="middle" x="382" y="-31.8" font-family="Helvetica,Arial,sans-serif" font-size="14.00">0 / 20</text>
</g>
<!-- 4&#45;&gt;3 -->
<g id="edge8" class="edge">
<title>4&#45;&gt;3</title>
<path fill="none" stroke="black" d="M416.74,-48.43C381.49,-49.29 301.01,-51.28 258.49,-52.32"/>
<polygon fill="black" stroke="black" points="258.22,-48.83 248.31,-52.57 258.39,-55.83 258.22,-48.83"/>
<text text-anchor="middle" x="329" y="-54.8" font-family="Helvetica,Arial,sans-serif" font-size="14.00">0 / 7</text>
</g>
<!-- 4&#45;&gt;5 -->
<g id="edge9" class="edge">
<title>4&#45;&gt;5</title>
<path fill="none" stroke="black" d="M452.45,-42.91C467.23,-38.34 489.18,-31.55 506.43,-26.22"/>
<polygon fill="black" stroke="black" points="507.95,-29.41 516.46,-23.11 505.88,-22.73 507.95,-29.41"/>
<text text-anchor="middle" x="484.5" y="-40.8" font-family="Helvetica,Arial,sans-serif" font-size="14.00">0 / 4</text>
</g>
</g>
</svg>
