<?xml version="1.0" encoding="UTF-8" standalone="no"?>
<!DOCTYPE svg PUBLIC "-//W3C//DTD SVG 1.1//EN"
 "http://www.w3.org/Graphics/SVG/1.1/DTD/svg11.dtd">
<!-- Generated by graphviz version 2.43.0 (0)
 -->
<!-- Title: finite_state_machine Pages: 1 -->
<svg width="468pt" height="446pt"
 viewBox="0.00 0.00 468.00 446.00" xmlns="http://www.w3.org/2000/svg" xmlns:xlink="http://www.w3.org/1999/xlink">
<g id="graph0" class="graph" transform="scale(1 1) rotate(0) translate(4 442)">
<title>finite_state_machine</title>
<polygon fill="white" stroke="transparent" points="-4,4 -4,-442 464,-442 464,4 -4,4"/>
<!-- 5 -->
<g id="node1" class="node">
<title>5</title>
<ellipse fill="none" stroke="black" cx="18" cy="-70" rx="18" ry="18"/>
<text text-anchor="middle" x="18" y="-66.3" font-family="Helvetica,Arial,sans-serif" font-size="14.00">5</text>
</g>
<!-- 4 -->
<g id="node2" class="node">
<title>4</title>
<ellipse fill="none" stroke="black" cx="106" cy="-159" rx="18" ry="18"/>
<text text-anchor="middle" x="106" y="-155.3" font-family="Helvetica,Arial,sans-serif" font-size="14.00">4</text>
</g>
<!-- 5&#45;&gt;4 -->
<g id="edge1" class="edge">
<title>5&#45;&gt;4</title>
<path fill="none" stroke="black" d="M30.86,-83.14C37.57,-90.51 46.17,-99.85 54,-108 64.13,-118.55 75.63,-130.09 85.14,-139.52"/>
<polygon fill="black" stroke="black" points="82.7,-142.03 92.28,-146.57 87.62,-137.05 82.7,-142.03"/>
<text text-anchor="middle" x="62" y="-126.8" font-family="Helvetica,Arial,sans-serif" font-size="14.00">0</text>
</g>
<!-- 1 -->
<g id="node3" class="node">
<title>1</title>
<ellipse fill="none" stroke="black" cx="354" cy="-120" rx="18" ry="18"/>
<text text-anchor="middle" x="354" y="-116.3" font-family="Helvetica,Arial,sans-serif" font-size="14.00">1</text>
</g>
<!-- 5&#45;&gt;1 -->
<g id="edge2" class="edge">
<title>5&#45;&gt;1</title>
<path fill="none" stroke="black" d="M35.25,-64.2C52.37,-58.61 80.23,-51 105,-51 105,-51 105,-51 275,-51 302.75,-51 325.26,-75.81 338.85,-95.67"/>
<polygon fill="black" stroke="black" points="336.08,-97.84 344.44,-104.34 341.96,-94.04 336.08,-97.84"/>
<text text-anchor="middle" x="194" y="-54.8" font-family="Helvetica,Arial,sans-serif" font-size="14.00">0</text>
</g>
<!-- 4&#45;&gt;5 -->
<g id="edge3" class="edge">
<title>4&#45;&gt;5</title>
<path fill="none" stroke="black" d="M100.37,-141.79C95.32,-126.06 85.77,-103.16 70,-89 63.13,-82.83 54.07,-78.6 45.49,-75.73"/>
<polygon fill="black" stroke="black" points="46.39,-72.34 35.81,-72.95 44.46,-79.07 46.39,-72.34"/>
<text text-anchor="middle" x="62" y="-92.8" font-family="Helvetica,Arial,sans-serif" font-size="14.00">14</text>
</g>
<!-- 4&#45;&gt;1 -->
<g id="edge4" class="edge">
<title>4&#45;&gt;1</title>
<path fill="none" stroke="black" d="M123.91,-156.32C165.86,-149.67 275.03,-132.36 326.02,-124.28"/>
<polygon fill="black" stroke="black" points="326.64,-127.72 335.97,-122.7 325.55,-120.81 326.64,-127.72"/>
<text text-anchor="middle" x="234" y="-142.8" font-family="Helvetica,Arial,sans-serif" font-size="14.00">0</text>
</g>
<!-- 3 -->
<g id="node4" class="node">
<title>3</title>
<ellipse fill="none" stroke="black" cx="442" cy="-266" rx="18" ry="18"/>
<text text-anchor="middle" x="442" y="-262.3" font-family="Helvetica,Arial,sans-serif" font-size="14.00">3</text>
</g>
<!-- 4&#45;&gt;3 -->
<g id="edge5" class="edge">
<title>4&#45;&gt;3</title>
<path fill="none" stroke="black" d="M107.99,-176.89C110.88,-224.1 120.5,-350.77 142,-386 156.59,-409.9 165,-423 193,-423 193,-423 193,-423 355,-423 413.12,-423 432.22,-339.22 438.29,-294.06"/>
<polygon fill="black" stroke="black" points="441.78,-294.36 439.51,-284.01 434.83,-293.51 441.78,-294.36"/>
<text text-anchor="middle" x="274" y="-426.8" font-family="Helvetica,Arial,sans-serif" font-size="14.00">0</text>
</g>
<!-- 2 -->
<g id="node5" class="node">
<title>2</title>
<ellipse fill="none" stroke="black" cx="194" cy="-221" rx="18" ry="18"/>
<text text-anchor="middle" x="194" y="-217.3" font-family="Helvetica,Arial,sans-serif" font-size="14.00">2</text>
</g>
<!-- 4&#45;&gt;2 -->
<g id="edge6" class="edge">
<title>4&#45;&gt;2</title>
<path fill="none" stroke="black" d="M124.27,-161.25C134.76,-163.27 148,-167.04 158,-174 166.46,-179.89 173.71,-188.49 179.38,-196.72"/>
<polygon fill="black" stroke="black" points="176.56,-198.81 184.89,-205.36 182.46,-195.05 176.56,-198.81"/>
<text text-anchor="middle" x="150" y="-177.8" font-family="Helvetica,Arial,sans-serif" font-size="14.00">0</text>
</g>
<!-- 1&#45;&gt;5 -->
<g id="edge7" class="edge">
<title>1&#45;&gt;5</title>
<path fill="none" stroke="black" d="M349.97,-102.29C343.14,-68.91 323.2,0 275,0 105,0 105,0 105,0 74.85,0 49.4,-26.2 34.19,-46.54"/>
<polygon fill="black" stroke="black" points="31.25,-44.63 28.31,-54.81 36.96,-48.69 31.25,-44.63"/>
<text text-anchor="middle" x="194" y="-3.8" font-family="Helvetica,Arial,sans-serif" font-size="14.00">21</text>
</g>
<!-- 1&#45;&gt;4 -->
<g id="edge8" class="edge">
<title>1&#45;&gt;4</title>
<path fill="none" stroke="black" d="M335.85,-119.8C313.38,-119.56 272.74,-119.15 238,-119 234.44,-118.98 233.52,-118.47 230,-119 189.54,-125.07 180.75,-132.87 142,-146 138.87,-147.06 135.6,-148.21 132.36,-149.38"/>
<polygon fill="black" stroke="black" points="131.13,-146.11 122.96,-152.85 133.55,-152.67 131.13,-146.11"/>
<text text-anchor="middle" x="234" y="-122.8" font-family="Helvetica,Arial,sans-serif" font-size="14.00">1</text>
</g>
<!-- 1&#45;&gt;3 -->
<g id="edge9" class="edge">
<title>1&#45;&gt;3</title>
<path fill="none" stroke="black" d="M372.11,-117.44C383.07,-116.8 396.9,-117.99 406,-126 422.61,-140.61 432.96,-201.67 437.78,-238.15"/>
<polygon fill="black" stroke="black" points="434.32,-238.69 439.05,-248.17 441.26,-237.81 434.32,-238.69"/>
<text text-anchor="middle" x="398" y="-129.8" font-family="Helvetica,Arial,sans-serif" font-size="14.00">0</text>
</g>
<!-- 0 -->
<g id="node6" class="node">
<title>0</title>
<ellipse fill="none" stroke="black" cx="274" cy="-205" rx="18" ry="18"/>
<text text-anchor="middle" x="274" y="-201.3" font-family="Helvetica,Arial,sans-serif" font-size="14.00">0</text>
</g>
<!-- 1&#45;&gt;0 -->
<g id="edge10" class="edge">
<title>1&#45;&gt;0</title>
<path fill="none" stroke="black" d="M338.49,-129.36C329.67,-135.46 318.51,-143.95 310,-153 302.18,-161.33 294.88,-171.57 289,-180.76"/>
<polygon fill="black" stroke="black" points="285.89,-179.14 283.62,-189.48 291.85,-182.81 285.89,-179.14"/>
<text text-anchor="middle" x="314" y="-156.8" font-family="Helvetica,Arial,sans-serif" font-size="14.00">0</text>
</g>
<!-- 3&#45;&gt;4 -->
<g id="edge13" class="edge">
<title>3&#45;&gt;4</title>
<path fill="none" stroke="black" d="M435.94,-283.03C425.86,-312.99 400.26,-372 355,-372 193,-372 193,-372 193,-372 114.32,-372 105.84,-245.5 106.08,-187.47"/>
<polygon fill="black" stroke="black" points="109.58,-187.21 106.22,-177.16 102.59,-187.11 109.58,-187.21"/>
<text text-anchor="middle" x="274" y="-375.8" font-family="Helvetica,Arial,sans-serif" font-size="14.00">5</text>
</g>
<!-- 3&#45;&gt;1 -->
<g id="edge11" class="edge">
<title>3&#45;&gt;1</title>
<path fill="none" stroke="black" d="M437.75,-248.33C433.24,-227.14 423.57,-191.2 406,-165 398.47,-153.77 387.48,-143.59 377.63,-135.76"/>
<polygon fill="black" stroke="black" points="379.46,-132.76 369.38,-129.52 375.24,-138.34 379.46,-132.76"/>
<text text-anchor="middle" x="398" y="-168.8" font-family="Helvetica,Arial,sans-serif" font-size="14.00">11</text>
</g>
<!-- 3&#45;&gt;2 -->
<g id="edge12" class="edge">
<title>3&#45;&gt;2</title>
<path fill="none" stroke="black" d="M423.99,-265.56C414.07,-265.25 401.32,-264.75 390,-264 365.95,-262.42 359.75,-263.1 336,-259 288.09,-250.73 276.76,-245.29 230,-232 227.13,-231.18 224.13,-230.3 221.16,-229.39"/>
<polygon fill="black" stroke="black" points="221.91,-225.96 211.33,-226.34 219.83,-232.65 221.91,-225.96"/>
<text text-anchor="middle" x="314" y="-258.8" font-family="Helvetica,Arial,sans-serif" font-size="14.00">2</text>
</g>
<!-- 3&#45;&gt;0 -->
<g id="edge14" class="edge">
<title>3&#45;&gt;0</title>
<path fill="none" stroke="black" d="M430.36,-252.24C418.13,-237.74 396.57,-215.95 372,-208 349.28,-200.65 321.98,-200.52 302.14,-201.87"/>
<polygon fill="black" stroke="black" points="301.63,-198.4 291.96,-202.73 302.22,-205.37 301.63,-198.4"/>
<text text-anchor="middle" x="354" y="-211.8" font-family="Helvetica,Arial,sans-serif" font-size="14.00">0</text>
</g>
<!-- 2&#45;&gt;4 -->
<g id="edge19" class="edge">
<title>2&#45;&gt;4</title>
<path fill="none" stroke="black" d="M177.89,-212.32C167.53,-206.18 153.62,-197.55 142,-189 137.25,-185.5 132.33,-181.53 127.73,-177.65"/>
<polygon fill="black" stroke="black" points="129.77,-174.78 119.92,-170.87 125.18,-180.07 129.77,-174.78"/>
<text text-anchor="middle" x="150" y="-202.8" font-family="Helvetica,Arial,sans-serif" font-size="14.00">12</text>
</g>
<!-- 2&#45;&gt;3 -->
<g id="edge18" class="edge">
<title>2&#45;&gt;3</title>
<path fill="none" stroke="black" d="M208.45,-232.17C214.75,-237.09 222.51,-242.72 230,-247 240.89,-253.23 244.19,-253.77 256,-258 279.56,-266.45 285.33,-269.79 310,-274 345.09,-279.99 354.41,-277.11 390,-278 397.11,-278.18 398.99,-279.17 406,-278 409.13,-277.48 412.36,-276.71 415.52,-275.81"/>
<polygon fill="black" stroke="black" points="416.84,-279.07 425.26,-272.63 414.67,-272.41 416.84,-279.07"/>
<text text-anchor="middle" x="314" y="-278.8" font-family="Helvetica,Arial,sans-serif" font-size="14.00">0</text>
</g>
<!-- 2&#45;&gt;0 -->
<g id="edge20" class="edge">
<title>2&#45;&gt;0</title>
<path fill="none" stroke="black" d="M206.99,-208.01C213.22,-202.23 221.34,-196.04 230,-193 235.9,-190.93 242.36,-191.36 248.43,-192.91"/>
<polygon fill="black" stroke="black" points="247.53,-196.31 258.13,-196.36 249.87,-189.71 247.53,-196.31"/>
<text text-anchor="middle" x="234" y="-196.8" font-family="Helvetica,Arial,sans-serif" font-size="14.00">0</text>
</g>
<!-- 0&#45;&gt;1 -->
<g id="edge15" class="edge">
<title>0&#45;&gt;1</title>
<path fill="none" stroke="black" d="M288.89,-194.41C297.69,-187.38 309.05,-177.7 318,-168 324.98,-160.43 331.85,-151.46 337.62,-143.34"/>
<polygon fill="black" stroke="black" points="340.6,-145.17 343.41,-134.96 334.84,-141.19 340.6,-145.17"/>
<text text-anchor="middle" x="314" y="-178.8" font-family="Helvetica,Arial,sans-serif" font-size="14.00">7</text>
</g>
<!-- 0&#45;&gt;3 -->
<g id="edge16" class="edge">
<title>0&#45;&gt;3</title>
<path fill="none" stroke="black" d="M291.22,-210.96C320.18,-221.6 380.97,-243.94 415.54,-256.65"/>
<polygon fill="black" stroke="black" points="414.37,-259.94 424.96,-260.11 416.78,-253.37 414.37,-259.94"/>
<text text-anchor="middle" x="354" y="-243.8" font-family="Helvetica,Arial,sans-serif" font-size="14.00">10</text>
</g>
<!-- 0&#45;&gt;2 -->
<g id="edge17" class="edge">
<title>0&#45;&gt;2</title>
<path fill="none" stroke="black" d="M256.11,-208.46C246.1,-210.52 233.19,-213.17 221.81,-215.5"/>
<polygon fill="black" stroke="black" points="221.02,-212.09 211.92,-217.53 222.42,-218.95 221.02,-212.09"/>
<text text-anchor="middle" x="234" y="-216.8" font-family="Helvetica,Arial,sans-serif" font-size="14.00">8</text>
</g>
</g>
</svg>
