<?xml version="1.0" encoding="UTF-8" standalone="no"?>
<!DOCTYPE svg PUBLIC "-//W3C//DTD SVG 1.1//EN"
 "http://www.w3.org/Graphics/SVG/1.1/DTD/svg11.dtd">
<!-- Generated by graphviz version 2.43.0 (0)
 -->
<!-- Title: finite_state_machine Pages: 1 -->
<svg width="380pt" height="381pt"
 viewBox="0.00 0.00 380.00 381.00" xmlns="http://www.w3.org/2000/svg" xmlns:xlink="http://www.w3.org/1999/xlink">
<g id="graph0" class="graph" transform="scale(1 1) rotate(0) translate(4 377)">
<title>finite_state_machine</title>
<polygon fill="white" stroke="transparent" points="-4,4 -4,-377 376,-377 376,4 -4,4"/>
<!-- 1 -->
<g id="node1" class="node">
<title>1</title>
<ellipse fill="none" stroke="black" cx="18" cy="-122" rx="18" ry="18"/>
<text text-anchor="middle" x="18" y="-118.3" font-family="Helvetica,Arial,sans-serif" font-size="14.00">1</text>
</g>
<!-- 2 -->
<g id="node2" class="node">
<title>2</title>
<ellipse fill="none" stroke="black" cx="98" cy="-222" rx="18" ry="18"/>
<text text-anchor="middle" x="98" y="-218.3" font-family="Helvetica,Arial,sans-serif" font-size="14.00">2</text>
</g>
<!-- 1&#45;&gt;2 -->
<g id="edge1" class="edge">
<title>1&#45;&gt;2</title>
<path fill="none" stroke="black" d="M23.39,-139.45C28.4,-156.39 38.03,-181.97 54,-199 58.9,-204.23 65.26,-208.51 71.58,-211.91"/>
<polygon fill="black" stroke="black" points="70.11,-215.08 80.64,-216.25 73.14,-208.77 70.11,-215.08"/>
<text text-anchor="middle" x="58" y="-208.8" font-family="Helvetica,Arial,sans-serif" font-size="14.00">0</text>
</g>
<!-- 0 -->
<g id="node3" class="node">
<title>0</title>
<ellipse fill="none" stroke="black" cx="186" cy="-139" rx="18" ry="18"/>
<text text-anchor="middle" x="186" y="-135.3" font-family="Helvetica,Arial,sans-serif" font-size="14.00">0</text>
</g>
<!-- 1&#45;&gt;0 -->
<g id="edge2" class="edge">
<title>1&#45;&gt;0</title>
<path fill="none" stroke="black" d="M36.14,-123.76C64.84,-126.69 122.87,-132.64 157.39,-136.17"/>
<polygon fill="black" stroke="black" points="157.4,-139.69 167.7,-137.23 158.11,-132.73 157.4,-139.69"/>
<text text-anchor="middle" x="98" y="-134.8" font-family="Helvetica,Arial,sans-serif" font-size="14.00">12</text>
</g>
<!-- 3 -->
<g id="node4" class="node">
<title>3</title>
<ellipse fill="none" stroke="black" cx="354" cy="-270" rx="18" ry="18"/>
<text text-anchor="middle" x="354" y="-266.3" font-family="Helvetica,Arial,sans-serif" font-size="14.00">3</text>
</g>
<!-- 1&#45;&gt;3 -->
<g id="edge3" class="edge">
<title>1&#45;&gt;3</title>
<path fill="none" stroke="black" d="M27.23,-106.24C39.43,-85.33 64.41,-51 97,-51 97,-51 97,-51 267,-51 307.57,-51 336.96,-182.85 348.09,-241.94"/>
<polygon fill="black" stroke="black" points="344.71,-242.88 349.96,-252.08 351.59,-241.61 344.71,-242.88"/>
<text text-anchor="middle" x="186" y="-54.8" font-family="Helvetica,Arial,sans-serif" font-size="14.00">0</text>
</g>
<!-- 2&#45;&gt;1 -->
<g id="edge9" class="edge">
<title>2&#45;&gt;1</title>
<path fill="none" stroke="black" d="M86.25,-208.21C73.31,-191.63 51.42,-163.57 36.14,-143.98"/>
<polygon fill="black" stroke="black" points="38.76,-141.64 29.85,-135.9 33.24,-145.94 38.76,-141.64"/>
<text text-anchor="middle" x="58" y="-177.8" font-family="Helvetica,Arial,sans-serif" font-size="14.00">4</text>
</g>
<!-- 2&#45;&gt;0 -->
<g id="edge11" class="edge">
<title>2&#45;&gt;0</title>
<path fill="none" stroke="black" d="M111.69,-209.75C125.74,-196.19 148.59,-174.14 165.04,-158.26"/>
<polygon fill="black" stroke="black" points="167.77,-160.49 172.54,-151.03 162.91,-155.45 167.77,-160.49"/>
<text text-anchor="middle" x="142" y="-190.8" font-family="Helvetica,Arial,sans-serif" font-size="14.00">11</text>
</g>
<!-- 2&#45;&gt;3 -->
<g id="edge12" class="edge">
<title>2&#45;&gt;3</title>
<path fill="none" stroke="black" d="M103.57,-239.46C108.71,-256.46 118.45,-282.25 134,-300 172.01,-343.37 191.12,-352.43 248,-362 279.2,-367.25 295.05,-370.79 318,-349 332.5,-335.23 341.39,-314.37 346.58,-297.55"/>
<polygon fill="black" stroke="black" points="350.02,-298.27 349.35,-287.69 343.28,-296.37 350.02,-298.27"/>
<text text-anchor="middle" x="226" y="-361.8" font-family="Helvetica,Arial,sans-serif" font-size="14.00">0</text>
</g>
<!-- 4 -->
<g id="node5" class="node">
<title>4</title>
<ellipse fill="none" stroke="black" cx="186" cy="-294" rx="18" ry="18"/>
<text text-anchor="middle" x="186" y="-290.3" font-family="Helvetica,Arial,sans-serif" font-size="14.00">4</text>
</g>
<!-- 2&#45;&gt;4 -->
<g id="edge10" class="edge">
<title>2&#45;&gt;4</title>
<path fill="none" stroke="black" d="M106.96,-237.72C113.11,-248.55 122.5,-262.63 134,-272 141.2,-277.87 150.2,-282.43 158.63,-285.85"/>
<polygon fill="black" stroke="black" points="157.52,-289.17 168.12,-289.33 159.94,-282.6 157.52,-289.17"/>
<text text-anchor="middle" x="142" y="-284.8" font-family="Helvetica,Arial,sans-serif" font-size="14.00">3</text>
</g>
<!-- 0&#45;&gt;1 -->
<g id="edge7" class="edge">
<title>0&#45;&gt;1</title>
<path fill="none" stroke="black" d="M169.98,-130.32C156.39,-122.99 135.57,-113.07 116,-109 92.17,-104.04 64.64,-108.71 45,-113.77"/>
<polygon fill="black" stroke="black" points="43.95,-110.43 35.25,-116.49 45.83,-117.18 43.95,-110.43"/>
<text text-anchor="middle" x="98" y="-112.8" font-family="Helvetica,Arial,sans-serif" font-size="14.00">4</text>
</g>
<!-- 0&#45;&gt;2 -->
<g id="edge8" class="edge">
<title>0&#45;&gt;2</title>
<path fill="none" stroke="black" d="M167.8,-141.4C157.07,-143.64 143.55,-147.92 134,-156 121.93,-166.22 113.42,-181.67 107.81,-195.06"/>
<polygon fill="black" stroke="black" points="104.4,-194.18 104.08,-204.77 110.94,-196.69 104.4,-194.18"/>
<text text-anchor="middle" x="142" y="-159.8" font-family="Helvetica,Arial,sans-serif" font-size="14.00">2</text>
</g>
<!-- 3&#45;&gt;1 -->
<g id="edge15" class="edge">
<title>3&#45;&gt;1</title>
<path fill="none" stroke="black" d="M351.2,-251.87C344.71,-191.33 320.01,0 267,0 97,0 97,0 97,0 52.5,0 32.24,-58.34 23.98,-94.33"/>
<polygon fill="black" stroke="black" points="20.53,-93.75 21.88,-104.26 27.38,-95.2 20.53,-93.75"/>
<text text-anchor="middle" x="186" y="-3.8" font-family="Helvetica,Arial,sans-serif" font-size="14.00">12</text>
</g>
<!-- 3&#45;&gt;2 -->
<g id="edge17" class="edge">
<title>3&#45;&gt;2</title>
<path fill="none" stroke="black" d="M340.84,-257.45C334.57,-251.77 326.47,-245.54 318,-242 253.35,-214.98 168.84,-216.42 126.18,-219.4"/>
<polygon fill="black" stroke="black" points="125.72,-215.93 116.02,-220.2 126.27,-222.91 125.72,-215.93"/>
<text text-anchor="middle" x="226" y="-223.8" font-family="Helvetica,Arial,sans-serif" font-size="14.00">9</text>
</g>
<!-- 3&#45;&gt;4 -->
<g id="edge16" class="edge">
<title>3&#45;&gt;4</title>
<path fill="none" stroke="black" d="M337.65,-278.04C331.65,-280.91 324.63,-283.94 318,-286 276.89,-298.79 264.95,-302.05 222,-299 219.43,-298.82 216.76,-298.56 214.09,-298.26"/>
<polygon fill="black" stroke="black" points="214.41,-294.77 204.04,-296.93 213.49,-301.71 214.41,-294.77"/>
<text text-anchor="middle" x="266" y="-303.8" font-family="Helvetica,Arial,sans-serif" font-size="14.00">7</text>
</g>
<!-- 5 -->
<g id="node6" class="node">
<title>5</title>
<ellipse fill="none" stroke="black" cx="266" cy="-265" rx="18" ry="18"/>
<text text-anchor="middle" x="266" y="-261.3" font-family="Helvetica,Arial,sans-serif" font-size="14.00">5</text>
</g>
<!-- 3&#45;&gt;5 -->
<g id="edge18" class="edge">
<title>3&#45;&gt;5</title>
<path fill="none" stroke="black" d="M339.57,-259.06C333.39,-254.72 325.72,-250.23 318,-248 309.01,-245.41 299.24,-247.45 290.68,-250.9"/>
<polygon fill="black" stroke="black" points="289.15,-247.75 281.63,-255.22 292.16,-254.07 289.15,-247.75"/>
<text text-anchor="middle" x="310" y="-251.8" font-family="Helvetica,Arial,sans-serif" font-size="14.00">1</text>
</g>
<!-- 4&#45;&gt;2 -->
<g id="edge5" class="edge">
<title>4&#45;&gt;2</title>
<path fill="none" stroke="black" d="M173.64,-280.67C167.08,-273.32 158.47,-264.24 150,-257 141.43,-249.67 131.31,-242.47 122.35,-236.52"/>
<polygon fill="black" stroke="black" points="124.18,-233.53 113.89,-231.03 120.37,-239.41 124.18,-233.53"/>
<text text-anchor="middle" x="142" y="-260.8" font-family="Helvetica,Arial,sans-serif" font-size="14.00">11</text>
</g>
<!-- 4&#45;&gt;3 -->
<g id="edge6" class="edge">
<title>4&#45;&gt;3</title>
<path fill="none" stroke="black" d="M194.98,-310.14C200.91,-320.18 210.04,-332.23 222,-338 246.82,-349.97 256.52,-340.01 284,-338 299.23,-336.89 305.44,-341.69 318,-333 330.55,-324.33 339.08,-309.62 344.58,-296.6"/>
<polygon fill="black" stroke="black" points="347.91,-297.69 348.21,-287.1 341.37,-295.2 347.91,-297.69"/>
<text text-anchor="middle" x="266" y="-346.8" font-family="Helvetica,Arial,sans-serif" font-size="14.00">0</text>
</g>
<!-- 4&#45;&gt;5 -->
<g id="edge4" class="edge">
<title>4&#45;&gt;5</title>
<path fill="none" stroke="black" d="M203.16,-287.99C213.62,-284.1 227.46,-278.96 239.4,-274.52"/>
<polygon fill="black" stroke="black" points="240.71,-277.77 248.86,-271 238.27,-271.21 240.71,-277.77"/>
<text text-anchor="middle" x="226" y="-283.8" font-family="Helvetica,Arial,sans-serif" font-size="14.00">0</text>
</g>
<!-- 5&#45;&gt;3 -->
<g id="edge14" class="edge">
<title>5&#45;&gt;3</title>
<path fill="none" stroke="black" d="M283.99,-265.99C295.81,-266.68 311.83,-267.61 325.46,-268.4"/>
<polygon fill="black" stroke="black" points="325.56,-271.91 335.75,-269 325.97,-264.92 325.56,-271.91"/>
<text text-anchor="middle" x="310" y="-270.8" font-family="Helvetica,Arial,sans-serif" font-size="14.00">19</text>
</g>
<!-- 5&#45;&gt;4 -->
<g id="edge13" class="edge">
<title>5&#45;&gt;4</title>
<path fill="none" stroke="black" d="M248.97,-258.9C240.66,-256.68 230.5,-255.48 222,-259 215.17,-261.83 208.98,-266.71 203.77,-271.94"/>
<polygon fill="black" stroke="black" points="200.93,-269.87 196.88,-279.66 206.15,-274.53 200.93,-269.87"/>
<text text-anchor="middle" x="226" y="-262.8" font-family="Helvetica,Arial,sans-serif" font-size="14.00">4</text>
</g>
</g>
</svg>
